<?xml version="1.0" standalone="no"?>
<!DOCTYPE svg PUBLIC "-//W3C//DTD SVG 20010904//EN"
 "http://www.w3.org/TR/2001/REC-SVG-20010904/DTD/svg10.dtd">
<svg version="1.0" xmlns="http://www.w3.org/2000/svg"
 width="907.000000pt" height="907.000000pt" viewBox="0 0 907.000000 907.000000"
 preserveAspectRatio="xMidYMid meet">
<metadata>
Created by potrace 1.14, written by Peter Selinger 2001-2017
</metadata>
<g transform="translate(0.000000,907.000000) scale(0.100000,-0.100000)"
fill="#000000" stroke="none">
<path d="M4409 6717 c-15 -12 -66 -49 -113 -82 -93 -66 -87 -55 -136 -225 -12
-41 -25 -86 -30 -100 -5 -14 -18 -59 -30 -100 -12 -41 -23 -80 -25 -86 -3 -10
-78 -45 -540 -249 -132 -58 -305 -142 -385 -185 -80 -43 -198 -98 -263 -121
-65 -23 -117 -43 -115 -44 2 -2 84 -6 183 -9 99 -3 257 -9 350 -12 152 -5 217
-8 350 -14 30 -1 -4 -13 -145 -51 -102 -27 -194 -50 -205 -53 -32 -6 -379 -97
-381 -99 -1 -1 -42 -72 -92 -157 -49 -85 -115 -200 -147 -255 -32 -55 -69
-120 -83 -145 -14 -25 -33 -58 -43 -75 -10 -16 -38 -66 -64 -110 -25 -44 -60
-105 -78 -136 -17 -30 -54 -93 -80 -140 l-48 -84 -177 -117 c-163 -107 -200
-127 -466 -243 -159 -69 -307 -135 -330 -145 -22 -10 -108 -48 -191 -85 -82
-36 -141 -64 -130 -61 30 7 100 28 335 99 118 36 216 64 217 63 2 -2 -342
-233 -764 -515 -423 -282 -759 -510 -748 -507 50 13 394 99 425 106 19 4 233
58 475 120 242 61 448 113 458 115 10 2 27 7 37 10 10 3 27 8 37 10 10 2 92
22 183 45 91 23 172 43 180 45 8 2 62 15 120 30 58 15 114 29 125 31 11 2 141
35 288 73 147 37 264 65 260 61 -4 -4 -138 -62 -298 -129 -159 -68 -303 -129
-320 -137 -32 -14 -403 -171 -468 -197 -20 -9 -37 -19 -37 -22 0 -3 4 -4 9 0
8 5 259 78 461 135 36 10 103 29 150 43 47 13 97 27 112 31 14 3 34 9 45 12
16 5 -19 -21 -69 -51 -10 -5 -69 -44 -133 -85 -63 -41 -126 -82 -140 -90 -13
-8 -86 -55 -162 -104 -114 -75 -342 -221 -404 -261 -9 -5 -45 -29 -80 -53
l-64 -43 45 7 c25 3 54 8 65 10 11 2 34 7 50 9 61 11 531 95 555 100 14 3 39
7 55 10 17 3 118 21 225 40 107 19 211 37 230 40 19 3 55 9 80 15 25 5 137 25
250 45 113 19 216 37 230 40 14 3 67 12 117 20 51 9 98 17 105 20 7 2 31 7 53
10 22 3 74 12 115 20 41 8 91 16 110 19 19 3 44 7 55 10 11 2 40 7 65 11 57 9
79 13 112 20 15 4 39 8 55 10 15 2 37 6 48 8 11 3 40 8 65 12 25 4 54 9 65 11
26 5 230 42 275 49 19 3 32 4 30 2 -3 -3 -47 -39 -98 -80 -74 -61 -101 -77
-137 -83 -25 -3 -47 -10 -50 -14 -2 -4 13 -4 35 0 22 4 40 6 40 5 0 -1 -48
-42 -107 -90 -60 -49 -112 -93 -118 -98 -11 -10 55 -3 113 12 20 6 53 13 72
16 32 5 105 19 155 30 61 12 324 66 344 70 14 2 47 9 75 15 28 6 60 12 71 14
23 4 254 52 300 61 132 28 129 28 201 -2 l69 -30 355 99 c195 54 362 98 370
98 15 0 323 -117 397 -151 24 -10 45 -19 49 -19 12 0 284 -110 369 -150 85
-40 128 -60 300 -140 39 -18 120 -56 182 -86 l112 -53 93 29 c51 16 142 44
202 62 l108 33 34 85 c45 114 55 130 73 130 14 0 97 76 190 173 l34 36 -119
-44 c-65 -25 -122 -45 -125 -45 -4 0 -5 28 -3 63 l4 62 -43 13 c-23 7 -103 47
-178 88 l-137 75 -77 117 -78 116 27 116 c16 63 37 153 48 200 11 47 21 86 22
87 2 2 20 -6 42 -16 21 -10 116 -51 209 -91 94 -40 175 -75 180 -78 6 -4 15
-7 20 -9 6 -1 88 -36 183 -77 l173 -75 62 36 c34 19 93 54 131 76 38 23 82 48
97 57 15 8 76 44 137 79 l110 64 20 76 c12 42 30 110 41 151 11 41 21 80 21
85 0 6 -23 -26 -51 -70 -137 -214 -139 -216 -249 -292 -58 -39 -131 -90 -164
-113 -86 -61 -99 -61 -32 1 33 30 114 108 182 174 l123 120 6 100 c4 55 9 118
10 140 2 22 6 70 9 107 6 65 8 69 52 110 25 24 49 44 53 45 3 2 7 -27 9 -65 2
-37 6 -91 10 -121 l7 -54 55 72 c66 86 159 248 159 276 0 11 -10 61 -24 110
-24 92 -25 94 -73 79 -13 -3 -22 -3 -21 2 6 34 -4 55 -33 70 -45 23 -679 433
-700 453 -10 9 -49 90 -87 181 -38 91 -75 180 -83 197 -8 18 -48 63 -89 99
-41 37 -99 90 -130 118 -30 28 -93 85 -139 126 -46 41 -91 82 -100 90 -13 12
-87 79 -224 202 -24 22 -4 17 -306 83 -140 30 -273 60 -295 65 -66 16 -487
108 -524 115 -19 3 -38 8 -41 10 -4 3 -25 7 -46 10 -22 4 -64 13 -94 20 -30 8
-151 35 -268 61 -184 40 -219 45 -250 36 -21 -6 -74 -23 -120 -36 -146 -44
-130 -46 -303 38 l-154 76 -235 46 c-129 25 -246 47 -260 50 -16 2 -35 -5 -51
-19z m2963 -2954 c38 -16 68 -34 68 -40 0 -17 -16 -16 -76 2 l-49 14 -39 -37
c-311 -296 -294 -278 -305 -335 -6 -29 -13 -65 -15 -82 -11 -69 -16 -101 -20
-124 -3 -12 -8 -42 -10 -65 -3 -22 -8 -53 -11 -67 -5 -24 7 -36 128 -127 l132
-100 110 -22 c146 -29 140 -27 124 -46 -10 -12 -23 -14 -54 -9 -22 4 -53 9
-70 11 -76 11 -130 26 -145 38 -8 7 -53 39 -100 71 -47 32 -86 62 -88 67 -2 4
-8 8 -13 8 -12 0 -92 59 -100 73 -3 7 5 68 17 137 13 69 26 140 29 158 17 126
26 150 74 193 47 43 223 204 296 271 22 21 42 38 45 38 3 0 35 -12 72 -27z
m271 -1055 c-56 -22 -127 -19 -117 5 3 8 33 13 87 14 l82 1 -52 -20z"/>
<path d="M2285 4904 c-93 -41 -183 -81 -200 -89 -16 -7 -199 -87 -405 -178
-206 -91 -400 -176 -430 -190 -30 -14 -83 -37 -117 -51 -35 -14 -89 -38 -120
-52 -32 -15 -87 -40 -123 -56 l-65 -29 45 6 c25 3 81 12 125 20 115 21 120 19
30 -18 -241 -100 -501 -212 -510 -219 -6 -6 -4 -7 5 -4 8 3 148 33 310 66 317
66 676 140 700 145 50 11 561 117 588 122 28 5 49 26 135 137 56 72 107 138
114 146 6 8 41 53 78 100 36 47 72 93 80 102 7 9 21 28 31 42 l17 26 -83 -35
c-45 -19 -86 -38 -91 -41 -17 -10 -9 9 24 55 44 62 50 71 40 71 -4 -1 -84 -35
-178 -76z"/>
<path d="M6055 2805 c-16 -7 -149 -57 -295 -110 -146 -54 -267 -100 -270 -102
-3 -3 27 -2 65 1 39 3 122 8 185 12 l114 6 -63 -50 c-34 -28 -72 -58 -84 -67
-21 -15 -20 -16 23 -10 25 4 61 9 80 11 19 2 60 9 90 14 30 5 71 12 90 14 60
8 124 17 150 22 14 2 46 7 73 10 26 4 47 10 47 14 0 5 -16 21 -36 37 l-35 28
68 3 c37 2 71 7 76 11 4 4 -27 32 -70 62 -175 124 -159 116 -208 94z"/>
<path d="M3958 2723 c7 -3 16 -2 19 1 4 3 -2 6 -13 5 -11 0 -14 -3 -6 -6z"/>
</g>
</svg>
